<svg fill="#f05151" width="18px" height="18px" viewBox="0 0 200 200" data-name="Layer 1" id="Layer_1" xmlns="http://www.w3.org/2000/svg"><g id="SVGRepo_bgCarrier" stroke-width="0"></g><g id="SVGRepo_tracerCarrier" stroke-linecap="round" stroke-linejoin="round" stroke="#f05151" stroke-width="9.2"><title></title><path d="M114,100l49-49a9.9,9.9,0,0,0-14-14L100,86,51,37A9.9,9.9,0,0,0,37,51l49,49L37,149a9.9,9.9,0,0,0,14,14l49-49,49,49a9.9,9.9,0,0,0,14-14Z"></path></g><g id="SVGRepo_iconCarrier"><title></title><path d="M114,100l49-49a9.9,9.9,0,0,0-14-14L100,86,51,37A9.9,9.9,0,0,0,37,51l49,49L37,149a9.9,9.9,0,0,0,14,14l49-49,49,49a9.9,9.9,0,0,0,14-14Z"></path></g></svg>
